<svg xmlns="http://www.w3.org/2000/svg" style="display: none;" role="img">
  <defs>
    <symbol id="icon-protective" viewBox="0 0 512 512"> 
      <desc>Protective Icon</desc>
      <path d="M340.379 163.685v-8.646c0-15.957-12.983-28.939-28.939-28.939a28.752 28.752 0 00-13.941 3.589V85.921c0-17.099-13.911-31.01-31.01-31.01a30.821 30.821 0 00-15.946 4.425V31.011c0-17.1-13.911-31.011-31.011-31.011-15.155 0-27.797 10.93-30.479 25.32a30.816 30.816 0 00-16.255-4.616c-17.099 0-31.011 13.911-31.011 31.011v119.516c-8.018-4.64-18.969-5.764-27.834-3.081-16.862 5.104-26.911 22.409-23.05 39.543l9.496 81.323a49.624 49.624 0 0021.689 35.513l19.033 12.756a34.63 34.63 0 0115.376 28.817v61.876a7.5 7.5 0 0014.998 0v-31.496h100.956v100.519H171.495v-34.028c0-4.142-3.357-7.499-7.499-7.499s-7.499 3.357-7.499 7.499V504.5c0 .518.052 1.023.152 1.511.699 3.414 3.856 5.988 7.347 5.988H279.95a7.498 7.498 0 007.499-7.499V366.705a104.639 104.639 0 0029.528 4.236c28.176 0 54.625-11.013 74.477-31.009a7.499 7.499 0 10-10.643-10.567c-17.015 17.139-39.685 26.578-63.834 26.578-49.597 0-89.946-40.35-89.946-89.947s40.35-89.946 89.946-89.946c49.597 0 89.946 40.35 89.946 89.946 0 12.858-2.654 25.271-7.889 36.894a7.5 7.5 0 0013.676 6.16c6.112-13.572 9.212-28.058 9.212-43.054 0-49.825-34.903-91.648-81.543-102.311zm-104.897 36.272c-14.653 18.048-23.449 41.034-23.449 66.039 0 42.041 24.852 78.38 60.633 95.116a49.107 49.107 0 00-.214 4.483v15.89H171.495v-15.383a49.606 49.606 0 00-22.024-41.276l-19.033-12.756a34.64 34.64 0 01-15.143-24.793s-9.632-82.329-9.701-82.619c-2.297-9.57 3.283-19.3 12.703-22.151 4.984-1.508 10.207-.902 14.712 1.706 4.415 2.555 7.507 6.668 8.733 11.604l7.993 57.852c1.48 12.705 12.217 22.272 25.018 22.272 5.618 0 10.19 4.571 10.19 10.189v13.802a7.5 7.5 0 0014.998 0V286.13c0-13.888-11.299-25.187-25.187-25.187a10.182 10.182 0 01-10.126-9.052 5.673 5.673 0 00-.024-.188l-7.844-56.771c.011-.167.025-.334.025-.504V51.715c0-8.83 7.184-16.013 16.013-16.013 7.805 0 14.314 5.617 15.722 13.019V214.21a7.498 7.498 0 007.499 7.499c.049 0 .097-.007.146-.007.049.001.096.007.145.007a7.498 7.498 0 007.499-7.499l-.291-183.198c0-8.83 7.184-16.013 16.013-16.013s16.013 7.183 16.013 16.013zm47.018-33.081a104.924 104.924 0 00-31.958 17.943V84.573c.688-8.199 7.571-14.665 15.946-14.665 8.829 0 16.012 7.184 16.012 16.012zm42.881-5.487a105.098 105.098 0 00-27.883 1.483v-7.833c0-7.688 6.254-13.941 13.941-13.941s13.942 6.254 13.942 13.941z M289.791 329.329c6.008.617 11.913-.135 17.124-.8 4.459-.565 8.938-1.407 13.458-.869 3.319.395 6.621.915 9.941 1.304 4.507.528 9.348.827 13.852.364 5.261-.541 12.737-2.401 18.476-8.186 9.868-9.949 8.739-25.667 2.523-36.054-5.927-9.904-15.787-16.306-24.651-21.262-14.957-8.364-32.116-8.364-47.074 0-8.863 4.956-18.723 11.359-24.65 21.262-6.216 10.386-7.345 26.107 2.524 36.055 4.542 4.58 10.931 7.41 18.477 8.186zm-8.132-36.538c4.105-6.859 11.607-11.683 19.101-15.875 10.458-5.849 21.976-5.848 32.434 0 7.495 4.192 14.997 9.015 19.102 15.875 3.209 5.361 3.972 13.48-.302 17.79-2.042 2.058-5.366 3.417-9.361 3.829-4.867.498-10.033-.219-15.504-.98-3.239-.451-6.55-.943-9.818-.943-4.094 0-8.282.653-12.293 1.167-4.836.615-9.402 1.198-13.695.757-3.996-.41-7.32-1.77-9.362-3.829-4.275-4.31-3.511-12.43-.302-17.791zM290.044 245.831c0-13.292-10.814-24.106-24.106-24.106s-24.106 10.814-24.106 24.106c0 13.291 10.814 24.105 24.106 24.105s24.106-10.814 24.106-24.105zm-24.106 9.107c-5.022 0-9.108-4.085-9.108-9.107s4.086-9.108 9.108-9.108 9.108 4.086 9.108 9.108-4.086 9.107-9.108 9.107zM392.121 245.831c0-13.292-10.814-24.106-24.106-24.106-13.291 0-24.105 10.814-24.105 24.106 0 13.291 10.814 24.105 24.105 24.105 13.292 0 24.106-10.814 24.106-24.105zm-24.106 9.107c-5.022 0-9.107-4.085-9.107-9.107s4.085-9.108 9.107-9.108 9.108 4.086 9.108 9.108-4.086 9.107-9.108 9.107zM316.977 253.33c14.035 0 25.454-11.419 25.454-25.455s-11.419-25.455-25.454-25.455-25.454 11.419-25.454 25.455 11.419 25.455 25.454 25.455zm0-35.911c5.766 0 10.457 4.691 10.457 10.457s-4.691 10.457-10.457 10.457-10.457-4.691-10.457-10.457 4.691-10.457 10.457-10.457z"/>
    </symbol>
    <symbol id="icon-pethome" viewBox="0 0 512.006 512.006"> 
      <desc>Pet Home Icon</desc>
      <path d="M508.681 221.516L308.835 21.81C294.77 7.753 276.003.013 255.991.013c-20.013 0-38.779 7.741-52.845 21.796L2.932 221.883A10 10 0 0010 238.957h25.253l44.55 264.696c.009.056.024.108.035.163.03.162.065.322.104.481a8.69 8.69 0 00.256.897c.053.157.109.31.169.463.053.132.104.262.162.391.074.169.156.333.239.497.055.107.108.214.167.319.102.182.211.358.324.532.053.082.103.166.158.247.135.197.279.387.428.573.043.053.082.109.126.162.395.475.831.912 1.304 1.304.078.065.161.123.241.186.157.123.314.245.479.357.112.078.229.148.345.221.141.089.281.177.426.259.127.072.258.137.388.203a9.672 9.672 0 00.836.378c.157.062.315.12.476.174.129.044.257.086.388.125.185.054.372.1.56.144.112.025.223.054.336.076.238.046.48.081.724.11.069.008.137.021.207.028.321.032.646.051.975.051l.035-.001h332.608l.035.001c.328 0 .652-.02.975-.051.07-.007.138-.02.207-.028.243-.029.485-.064.724-.11.113-.022.224-.051.335-.076.189-.044.376-.09.561-.144a10.35 10.35 0 001.267-.467c.146-.065.288-.136.43-.207.132-.067.264-.133.392-.206.144-.081.282-.168.421-.255.117-.074.235-.145.35-.224.161-.111.315-.231.47-.351.083-.065.17-.125.251-.193.472-.392.907-.828 1.302-1.301.045-.055.086-.113.13-.169.146-.185.29-.372.423-.566.057-.082.107-.168.162-.251.111-.173.22-.347.32-.528.06-.106.113-.215.169-.323.083-.162.163-.326.237-.493.059-.129.111-.261.163-.393a10.11 10.11 0 00.31-.913 10.8 10.8 0 00.219-.927c.01-.055.025-.107.035-.163l44.549-264.697h25.253a.067.067 0 01.02 0c5.523 0 9.999-4.477 9.999-10a10.008 10.008 0 00-3.327-7.442zM145.996 491.993H98.121l-13.464-79.997h61.339v79.997zm199.99 0H165.995v-89.996c0-49.624 40.372-89.996 89.996-89.996s89.995 40.372 89.995 89.996v89.996zm67.875 0h-47.876v-79.997h61.338l-13.462 79.997zm39.987-237.597h-57.492c-5.523 0-10 4.477-10 10s4.477 10 10 10h54.127L430.69 391.999h-65.164c-5.068-55.983-52.255-99.996-109.534-99.996-57.281 0-104.467 44.013-109.536 99.996H81.29L61.497 274.395h54.127c5.522 0 10-4.477 10-10s-4.478-10-10-10H58.132l-2.6-15.44H77.42c2.652 0 5.195-1.054 7.071-2.929L255.99 64.529l171.499 171.498a10.003 10.003 0 007.071 2.929h21.888l-2.6 15.44zm-15.146-35.439l-175.64-175.64c-3.906-3.905-10.236-3.905-14.142 0L73.28 218.957H34.153l183.129-183c10.289-10.282 24.035-15.943 38.708-15.943 14.672 0 28.419 5.662 38.707 15.943l183.13 183.001h-39.125z"/><path d="M305.99 157.037c-7.966 0-15.211 3.388-20.588 8.895.383-2.068.587-4.206.587-6.395 0-17.919-13.457-32.499-29.999-32.499-16.54 0-29.998 14.579-29.998 32.499 0 2.189.204 4.328.587 6.396-5.378-5.507-12.622-8.896-20.588-8.896-16.541 0-29.999 14.579-29.999 32.499s13.457 32.5 29.999 32.5c1.995 0 3.944-.217 5.832-.622a50.12 50.12 0 00-.831 9.061c0 26.19 20.185 47.498 44.998 47.498s44.998-21.307 44.998-47.498a50.12 50.12 0 00-.831-9.061 27.77 27.77 0 005.833.622c16.541 0 29.999-14.579 29.999-32.5 0-17.92-13.458-32.499-29.999-32.499zm-99.999 44.999c-5.421 0-10-5.725-10-12.5s4.579-12.499 10-12.499c5.42 0 9.999 5.724 9.999 12.499s-4.579 12.5-9.999 12.5zm70.587-18.895a34.834 34.834 0 00-.55 4.823 43.89 43.89 0 00-3.219-1.532 30.745 30.745 0 003.769-3.291zm-20.588-36.105c5.421 0 10 5.724 10 12.499s-4.579 12.499-10 12.499c-5.42 0-9.999-5.724-9.999-12.499 0-6.774 4.579-12.499 9.999-12.499zm-16.818 39.395a43.717 43.717 0 00-3.22 1.532 34.831 34.831 0 00-.55-4.824 30.688 30.688 0 003.77 3.292zm16.818 71.541c-13.784 0-24.999-12.335-24.999-27.499 0-15.162 11.215-27.499 24.999-27.499 13.784 0 24.999 12.336 24.999 27.499 0 15.164-11.215 27.499-24.999 27.499zm50-55.936c-5.421 0-10-5.725-10-12.5s4.579-12.499 10-12.499 10 5.724 10 12.499-4.579 12.5-10 12.5zM145.671 254.396h-.324c-5.523 0-10 4.477-10 10s4.477 10 10 10h.324c5.522 0 10-4.477 10-10s-4.478-10-10-10zM366.635 254.396h-.325c-5.522 0-10 4.477-10 10s4.478 10 10 10h.325c5.523 0 10-4.477 10-10s-4.478-10-10-10z"/>
    </symbol>
    <symbol id="icon-petfood" viewBox="0 0 512 512"> 
      <desc>Pet Food Icon</desc>
      <path d="M168.005 232.005c0-17.944-10.542-32-24-32s-24 14.056-24 32 10.542 32 24 32 24-14.056 24-32zm-32 0c0-9.767 4.739-16 8-16s8 6.233 8 16-4.738 16-8 16-8-6.234-8-16zM74.681 286.882c3.349 8.7 9.459 14.738 16.763 16.563a19.054 19.054 0 004.622.576 20.018 20.018 0 0013.173-5.182c10.152-8.791 13.7-27.11 8.086-41.7-3.349-8.7-9.459-14.739-16.763-16.564-6.243-1.561-12.565.076-17.8 4.606-10.148 8.788-13.7 27.106-8.081 41.701zm18.558-29.61A4.284 4.284 0 0196.008 256a2.671 2.671 0 01.676.09c1.656.414 4.025 2.415 5.709 6.789 3.525 9.157.918 19.925-3.628 23.861-1.826 1.582-3.042 1.279-3.443 1.178-1.656-.413-4.026-2.414-5.71-6.788-3.525-9.154-.912-19.922 3.627-23.858zM221.24 205.171c-5.232-4.53-11.551-6.165-17.8-4.606-7.3 1.826-13.414 7.863-16.763 16.564-5.619 14.6-2.067 32.913 8.085 41.705a20.022 20.022 0 0013.173 5.182 19.008 19.008 0 004.623-.577c7.3-1.825 13.414-7.862 16.763-16.563 5.621-14.594 2.07-32.913-8.081-41.705zm-6.847 35.957c-1.684 4.374-4.053 6.375-5.709 6.789-.4.1-1.618.4-3.444-1.179-4.545-3.935-7.153-14.7-3.628-23.861 1.684-4.374 4.054-6.375 5.71-6.788A2.613 2.613 0 01208 216a4.277 4.277 0 012.768 1.268c4.542 3.932 7.15 14.703 3.625 23.86z M477.47 448.636L457.2 403.32c-5.17-11.556-19.02-19.32-34.465-19.32H336V152a8.031 8.031 0 00-.337-2.3L312 70.826V24a8 8 0 00-8-8H48a8 8 0 00-8 8v46.826L16.337 149.7A8.031 8.031 0 0016 152v336a8 8 0 008 8h464a8 8 0 008-8v-16a24.037 24.037 0 00-18.53-23.364zm-34.879-38.782L459.657 448H212.343l17.066-38.146C232 404.052 240.17 400 249.268 400h173.464c9.098 0 17.268 4.052 19.859 9.854zM296 32v32H56V32zM53.952 80h244.1l19.2 64H288a8 8 0 000 16h32v224h-70.732c-15.445 0-29.295 7.764-34.465 19.32L194.815 448H32V160h40a8 8 0 000-16H34.752zM32 464h145.376a23.889 23.889 0 00-1.376 8v8H32zm448 16H192v-8a8.009 8.009 0 018-8h272a8.009 8.009 0 018 8z M104 160h152a8 8 0 000-16H104a8 8 0 000 16zM220.005 304.011a41.21 41.21 0 00-4.219.215c-2.109-18.079-19.145-32.215-39.781-32.215s-37.672 14.136-39.78 32.215a41.23 41.23 0 00-4.22-.215c-19.85 0-36 14.355-36 32s16.15 32 36 32c17.107 0 31.464-10.659 35.107-24.9a44.757 44.757 0 0017.787 0c3.643 14.24 18 24.9 35.106 24.9 19.851 0 36-14.356 36-32s-16.149-32-36-32zm0 48c-11.027 0-20-7.178-20-16a12.776 12.776 0 01.239-2.43 8 8 0 00-11.56-8.608 27.975 27.975 0 01-25.357 0 8 8 0 00-11.56 8.608 12.855 12.855 0 01.238 2.43c0 8.822-8.972 16-20 16s-20-7.178-20-16 8.973-16 20-16a23.856 23.856 0 019.667 2.017 8 8 0 0010.967-9.471 16.789 16.789 0 01-.634-4.546c0-11.029 10.766-20 24-20s24 8.971 24 20a16.829 16.829 0 01-.633 4.548 8 8 0 0010.966 9.469 23.863 23.863 0 019.667-2.017c11.028 0 20 7.177 20 16s-8.972 16-20 16zM251.443 240.571c-7.3 1.825-13.413 7.863-16.762 16.564-5.618 14.594-2.067 32.913 8.084 41.7a20.02 20.02 0 0013.174 5.183 19.062 19.062 0 004.623-.576c7.3-1.825 13.414-7.862 16.763-16.563 5.618-14.6 2.066-32.914-8.085-41.705-5.232-4.528-11.552-6.165-17.797-4.603zm10.95 40.563c-1.684 4.374-4.053 6.374-5.709 6.788-.4.1-1.618.4-3.444-1.179-4.545-3.935-7.153-14.7-3.627-23.86 1.683-4.374 4.053-6.375 5.709-6.789A2.661 2.661 0 01256 256a4.282 4.282 0 012.769 1.268c4.542 3.94 7.149 14.708 3.624 23.866zM120 416H88a8 8 0 000 16h32a8 8 0 000-16z"/>
    </symbol>
    <symbol id="icon-petreport" viewBox="0 0 511.999 511.999"> 
      <desc>Pet Report Icon</desc>
      <path d="M441.739 413.955a7.5 7.5 0 007.5-7.5V33.823c0-9.942-8.088-18.03-18.03-18.03h-71.285C358.817 6.905 351.231 0 342.048 0h-33.333a7.5 7.5 0 000 15h33.333c1.67 0 3.03 1.359 3.03 3.03v44.622c0 1.67-1.359 3.03-3.03 3.03H187.003a3.034 3.034 0 01-3.03-3.03V18.03c0-1.67 1.359-3.03 3.03-3.03h85.786a7.5 7.5 0 000-15h-85.786c-9.183 0-16.769 6.905-17.876 15.793H97.842c-9.941 0-18.03 8.088-18.03 18.03v269.485c-9.486.512-17.052 8.368-17.052 17.98v22.02c0 16.52 6.496 31.541 17.052 42.678v107.983c0 9.942 8.088 18.03 18.03 18.03H431.21c9.942 0 18.03-8.088 18.03-18.03v-51.588a7.5 7.5 0 00-15 0v51.588a3.033 3.033 0 01-3.03 3.03H97.842a3.033 3.033 0 01-3.03-3.03v-96.337a61.71 61.71 0 0030.051 7.779h226.801c.272 0 .54-.016.805-.044 16.06-.509 31.081-7.09 42.355-18.595 11.442-11.677 17.744-27.113 17.744-43.464V65.073c0-9.942-8.088-18.03-18.029-18.03h-34.46v-16.25h71.131c1.67 0 3.03 1.359 3.03 3.03v372.631a7.499 7.499 0 007.499 7.501zm-316.876-23.543c-25.973 0-47.103-21.13-47.103-47.104v-22.02a3.033 3.033 0 013.029-3.029h205.742c1.67 0 3.03 1.359 3.03 3.029v22.02c0 18.817 8.411 35.705 21.672 47.104zM394.538 62.043a3.033 3.033 0 013.029 3.03v278.235c0 25.419-20.665 46.545-46.065 47.092l-.073.005c-19.297-.095-35.885-11.851-43.066-28.571h22.801a7.5 7.5 0 000-15h-26.458a47.305 47.305 0 01-.146-3.527v-8.447h26.604a7.5 7.5 0 000-15h-26.676c-.732-9.275-8.497-16.602-17.957-16.602H132.198v-50.085a7.5 7.5 0 00-15 0v50.085H94.812V33.823c0-1.67 1.359-3.03 3.03-3.03h71.131v16.25h-33.745c-9.942 0-18.03 8.088-18.03 18.03v152.174a7.5 7.5 0 0015 0V65.073c0-1.67 1.359-3.03 3.03-3.03h33.745v.608c0 9.942 8.088 18.03 18.03 18.03h155.045c9.942 0 18.03-8.088 18.03-18.03v-.608z M234.007 187.232c-.452 4.123-2.447 7.938-5.619 10.741-6.968 6.16-10.542 15.027-9.805 24.326 1.136 14.322 12.805 25.871 27.144 26.864a30.02 30.02 0 002.094.073c3.644 0 7.2-.666 10.597-1.988a16.817 16.817 0 0112.219 0 29.121 29.121 0 0012.664 1.917c14.202-.971 25.871-12.385 27.142-26.549.925-10.299-3.47-20.112-11.756-26.25-3.599-2.665-5.948-6.424-6.614-10.585-1.091-6.817-4.594-13.066-9.863-17.598-10.94-9.407-27.399-9.354-38.284.125-5.594 4.87-9.116 11.591-9.919 18.924zm19.769-7.613c2.665-2.32 6.015-3.482 9.365-3.482 3.318 0 6.636 1.139 9.288 3.419 2.622 2.254 4.292 5.227 4.832 8.595 1.29 8.057 5.728 15.255 12.498 20.268 4.05 3 6.197 7.805 5.744 12.854-.62 6.896-6.305 12.453-13.226 12.926a14.308 14.308 0 01-6.201-.931 31.77 31.77 0 00-23.098 0 14.294 14.294 0 01-6.214.93c-6.987-.484-12.673-6.109-13.227-13.085-.361-4.556 1.384-8.894 4.787-11.902 5.973-5.28 9.736-12.505 10.595-20.345.39-3.575 2.116-6.86 4.857-9.247zM236.853 159.132c12.721 0 23.07-10.349 23.07-23.07s-10.349-23.07-23.07-23.07-23.07 10.349-23.07 23.07 10.349 23.07 23.07 23.07zm0-31.14c4.45 0 8.07 3.62 8.07 8.07s-3.62 8.07-8.07 8.07-8.07-3.62-8.07-8.07 3.62-8.07 8.07-8.07zM292.198 159.132c12.721 0 23.07-10.349 23.07-23.07s-10.349-23.07-23.07-23.07-23.07 10.349-23.07 23.07 10.349 23.07 23.07 23.07zm0-31.14c4.45 0 8.07 3.62 8.07 8.07s-3.62 8.07-8.07 8.07-8.07-3.62-8.07-8.07 3.62-8.07 8.07-8.07zM197.886 196.599c12.721 0 23.07-10.349 23.07-23.07s-10.349-23.07-23.07-23.07-23.07 10.349-23.07 23.07c.001 12.721 10.35 23.07 23.07 23.07zm0-31.141c4.45 0 8.07 3.62 8.07 8.07s-3.62 8.07-8.07 8.07-8.07-3.62-8.07-8.07c.001-4.449 3.621-8.07 8.07-8.07zM308.094 173.528c0 12.721 10.349 23.07 23.07 23.07s23.07-10.349 23.07-23.07-10.349-23.07-23.07-23.07c-12.72 0-23.07 10.35-23.07 23.07zm23.07-8.07c4.45 0 8.07 3.62 8.07 8.07s-3.62 8.07-8.07 8.07-8.07-3.62-8.07-8.07c0-4.449 3.621-8.07 8.07-8.07zM348.636 104.296a7.5 7.5 0 007.5 7.5h16.01a7.5 7.5 0 000-15h-16.01a7.5 7.5 0 00-7.5 7.5zM205.06 32.84h-.034a7.5 7.5 0 00-.034 15H205.136a7.5 7.5 0 00.033-15zM323.99 47.841h.035a7.5 7.5 0 00.033-15H323.915a7.5 7.5 0 00-.034 15zM369.477 266.926H159.574a7.5 7.5 0 000 15h209.903a7.5 7.5 0 000-15zM128.454 463.509a7.5 7.5 0 000 15h15.767a7.5 7.5 0 000-15zM205.386 442.921a7.5 7.5 0 00-7.5-7.5h-69.433a7.5 7.5 0 000 15h69.433a7.5 7.5 0 007.5-7.5z"/>
    </symbol>
    <symbol id="icon-petvaccine" viewBox="0 0 512 512"> 
      <desc>Pet Vaccine Icon</desc>
      <path d="M392 200.679V184a16.019 16.019 0 0016-16v-32a16.019 16.019 0 00-16-16H264a16.019 16.019 0 00-16 16v32a16.019 16.019 0 0016 16v16.679A48.071 48.071 0 00224 248v200a48.055 48.055 0 0048 48h112a48.055 48.055 0 0048-48V248a48.071 48.071 0 00-40-47.321zM264 136h128l.01 32H264zm112 48v16h-96v-16zm-104 32h112a32.036 32.036 0 0132 32H240a32.036 32.036 0 0132-32zm-32 48h176v168H240zm144 216H272a32.036 32.036 0 01-32-32h176a32.036 32.036 0 01-32 32zM176 369.376V128a16.019 16.019 0 00-16-16V96a8 8 0 00-2.343-5.657L144 76.686V24a8 8 0 00-16 0v52.686l-13.657 13.657A8 8 0 00112 96v16a16.019 16.019 0 00-16 16v241.376A24 24 0 00104 416h8v33.376A24 24 0 00120 496h32a24 24 0 008-46.624V416h8a24 24 0 008-46.624zM112 352h48v16h-48zm16-252.687l8-8 8 8V112h-16zM160 128v32h-8a8 8 0 000 16h8v16h-8a8 8 0 000 16h8v16h-8a8 8 0 000 16h8v16h-8a8 8 0 000 16h8v16h-8a8 8 0 000 16h8v32h-48V128zm-8 352h-32a8 8 0 010-16h32a8 8 0 010 16zm-8-32h-16v-32h16zm24-48h-64a8 8 0 010-16h64a8 8 0 010 16z M304 328a24 24 0 10-24 24 24.028 24.028 0 0024-24zm-32 0a8 8 0 118 8 8.009 8.009 0 01-8-8zM328 328a24 24 0 10-24-24 24.028 24.028 0 0024 24zm0-32a8 8 0 11-8 8 8.009 8.009 0 018-8z M376 304a24 24 0 1024 24 24.028 24.028 0 00-24-24zm0 32a8 8 0 118-8 8.009 8.009 0 01-8 8zM358.777 359.247a32 32 0 00-61.554 0C286.361 365.209 280 374.247 280 384c0 17.944 21.084 32 48 32s48-14.056 48-32c0-9.753-6.361-18.791-17.223-24.753zM328 400c-18.314 0-32-8.447-32-16 0-4.253 4.4-8.847 11.478-11.99a8 8 0 004.678-6.22 16 16 0 0131.688 0 8 8 0 004.678 6.22C355.6 375.153 360 379.747 360 384c0 7.553-13.686 16-32 16z"/>
    </symbol>






  </defs>
</svg>
