<svg id="Capa_1" enable-background="new 0 0 512 512" height="512" viewBox="0 0 512 512" width="512" xmlns="http://www.w3.org/2000/svg"><g><g><g><path d="m340.379 163.685v-8.646c0-15.957-12.983-28.939-28.939-28.939-5.052 0-9.803 1.304-13.941 3.589v-43.768c0-17.099-13.911-31.01-31.01-31.01-5.828 0-11.283 1.618-15.946 4.425v-28.325c0-17.1-13.911-31.011-31.011-31.011-15.155 0-27.797 10.93-30.479 25.32-4.73-2.924-10.298-4.616-16.255-4.616-17.099 0-31.011 13.911-31.011 31.011v119.516c-8.018-4.64-18.969-5.764-27.834-3.081-16.862 5.104-26.911 22.409-23.05 39.543l9.496 81.323c1.689 14.462 9.594 27.406 21.689 35.513l19.033 12.756c9.628 6.452 15.376 17.225 15.376 28.817v61.876c0 4.142 3.357 7.499 7.499 7.499 4.141 0 7.499-3.357 7.499-7.499v-31.496h100.956v100.519h-100.956v-34.028c0-4.142-3.357-7.499-7.499-7.499s-7.499 3.357-7.499 7.499v41.527c0 .518.052 1.023.152 1.511.699 3.414 3.856 5.988 7.347 5.988h115.954c4.142 0 7.499-3.357 7.499-7.499v-137.795c9.371 2.752 19.279 4.236 29.528 4.236 28.176 0 54.625-11.013 74.477-31.009 2.918-2.939 2.901-7.688-.038-10.605-2.94-2.918-7.688-2.901-10.605.038-17.015 17.139-39.685 26.578-63.834 26.578-49.597 0-89.946-40.35-89.946-89.947s40.35-89.946 89.946-89.946c49.597 0 89.946 40.35 89.946 89.946 0 12.858-2.654 25.271-7.889 36.894-1.7 3.777-.018 8.217 3.758 9.918 3.776 1.699 8.216.019 9.918-3.758 6.112-13.572 9.212-28.058 9.212-43.054 0-49.825-34.903-91.648-81.543-102.311zm-104.897 36.272c-14.653 18.048-23.449 41.034-23.449 66.039 0 42.041 24.852 78.38 60.633 95.116-.136 1.484-.214 2.979-.214 4.483v15.89h-100.957v-15.383c0-16.603-8.234-32.033-22.024-41.276l-19.033-12.756c-8.445-5.659-13.964-14.696-15.143-24.793 0 0-9.632-82.329-9.701-82.619-2.297-9.57 3.283-19.3 12.703-22.151 4.984-1.508 10.207-.902 14.712 1.706 4.415 2.555 7.507 6.668 8.733 11.604l7.993 57.852c1.48 12.705 12.217 22.272 25.018 22.272 5.618 0 10.19 4.571 10.19 10.189v13.802c0 4.142 3.357 7.499 7.499 7.499 4.141 0 7.499-3.357 7.499-7.499v-13.802c0-13.888-11.299-25.187-25.187-25.187-5.193 0-9.546-3.892-10.126-9.052-.007-.063-.015-.126-.024-.188l-7.844-56.771c.011-.167.025-.334.025-.504v-142.713c0-8.83 7.184-16.013 16.013-16.013 7.805 0 14.314 5.617 15.722 13.019v165.489c0 4.142 3.357 7.499 7.499 7.499.049 0 .097-.007.146-.007.049.001.096.007.145.007 4.142 0 7.499-3.357 7.499-7.499l-.291-183.198c0-8.83 7.184-16.013 16.013-16.013s16.013 7.183 16.013 16.013zm47.018-33.081c-11.736 4.094-22.53 10.213-31.958 17.943v-100.246c.688-8.199 7.571-14.665 15.946-14.665 8.829 0 16.012 7.184 16.012 16.012zm42.881-5.487c-2.773-.221-5.575-.337-8.404-.337-6.655 0-13.164.63-19.479 1.82v-7.833c0-7.688 6.254-13.941 13.941-13.941s13.942 6.254 13.942 13.941z"/><path d="m289.791 329.329c6.008.617 11.913-.135 17.124-.8 4.459-.565 8.938-1.407 13.458-.869 3.319.395 6.621.915 9.941 1.304 4.507.528 9.348.827 13.852.364 5.261-.541 12.737-2.401 18.476-8.186 9.868-9.949 8.739-25.667 2.523-36.054-5.927-9.904-15.787-16.306-24.651-21.262-14.957-8.364-32.116-8.364-47.074 0-8.863 4.956-18.723 11.359-24.65 21.262-6.216 10.386-7.345 26.107 2.524 36.055 4.542 4.58 10.931 7.41 18.477 8.186zm-8.132-36.538c4.105-6.859 11.607-11.683 19.101-15.875 10.458-5.849 21.976-5.848 32.434 0 7.495 4.192 14.997 9.015 19.102 15.875 3.209 5.361 3.972 13.48-.302 17.79-2.042 2.058-5.366 3.417-9.361 3.829-4.867.498-10.033-.219-15.504-.98-3.239-.451-6.55-.943-9.818-.943-4.094 0-8.282.653-12.293 1.167-4.836.615-9.402 1.198-13.695.757-3.996-.41-7.32-1.77-9.362-3.829-4.275-4.31-3.511-12.43-.302-17.791z"/><path d="m290.044 245.831c0-13.292-10.814-24.106-24.106-24.106s-24.106 10.814-24.106 24.106c0 13.291 10.814 24.105 24.106 24.105s24.106-10.814 24.106-24.105zm-24.106 9.107c-5.022 0-9.108-4.085-9.108-9.107s4.086-9.108 9.108-9.108 9.108 4.086 9.108 9.108-4.086 9.107-9.108 9.107z"/><path d="m392.121 245.831c0-13.292-10.814-24.106-24.106-24.106-13.291 0-24.105 10.814-24.105 24.106 0 13.291 10.814 24.105 24.105 24.105 13.292 0 24.106-10.814 24.106-24.105zm-24.106 9.107c-5.022 0-9.107-4.085-9.107-9.107s4.085-9.108 9.107-9.108 9.108 4.086 9.108 9.108-4.086 9.107-9.108 9.107z"/><path d="m316.977 253.33c14.035 0 25.454-11.419 25.454-25.455s-11.419-25.455-25.454-25.455-25.454 11.419-25.454 25.455 11.419 25.455 25.454 25.455zm0-35.911c5.766 0 10.457 4.691 10.457 10.457s-4.691 10.457-10.457 10.457-10.457-4.691-10.457-10.457 4.691-10.457 10.457-10.457z"/></g></g></g></svg>