<svg id="Layer_1" height="512" viewBox="0 0 512 512" width="512" xmlns="http://www.w3.org/2000/svg" data-name="Layer 1"><path d="m179.345 190.754c4.855 23.392 21.919 38.463 43.513 38.463h.259c10.62-.059 21.975-3.951 33.055-11.3 11.213 7.5 22.364 11.291 33.209 11.291h.256c21.85-.122 38.8-15.577 43.171-39.361 6.216-33.4-14.032-77.454-73.282-100.582-.1-.04-.206-.078-.311-.113a12.1 12.1 0 0 0 -3.708-.649 12.259 12.259 0 0 0 -3.691.686c-.121.041-.242.086-.36.135-58.967 24.272-78.711 68.41-72.119 101.387zm76.233-90.149c52.539 20.671 70.73 58.581 65.43 87.059-3.335 18.134-15.381 29.454-31.437 29.544h-.178c-9.246 0-19.493-3.955-29.648-11.444a6 6 0 0 0 -7.113-.007c-10.139 7.445-20.368 11.407-29.582 11.458-15.981.132-28.227-10.977-31.95-28.878-7.763-38.91 26.717-72.037 64.478-87.732z"/><path d="m221.028 78.212c.1.04.2.077.305.111a7.785 7.785 0 0 0 5.231 0q.176-.058.348-.129c25.17-10.2 33.6-29.347 30.789-43.843-2.191-10.851-10.51-18.144-20.671-18.144l-26.171-.14h-.032c-10.267 0-18.564 7.378-20.643 18.347-2.803 14.6 5.649 33.804 30.844 43.798zm-19.06-41.551c1.019-5.374 4.323-8.586 8.84-8.594l26.188.14c4.522 0 7.865 3.185 8.933 8.476 1.818 9.36-4.325 22.034-22 29.749-17.646-7.558-23.781-20.281-21.961-29.771z"/><path d="m293.452 78.324a7.785 7.785 0 0 0 5.231 0c.117-.039.232-.081.346-.128 25.17-10.2 33.6-29.347 30.789-43.843-2.191-10.854-10.51-18.145-20.671-18.145l-26.171-.14h-.032c-10.267 0-18.564 7.378-20.643 18.347-2.8 14.6 5.652 33.8 30.847 43.8.098.037.201.075.304.109zm-19.367-41.663c1.019-5.374 4.323-8.586 8.84-8.594l26.188.14c4.522 0 7.865 3.185 8.934 8.476 1.817 9.36-4.326 22.034-22 29.749-17.647-7.559-23.782-20.281-21.962-29.771z"/><path d="m155.566 75.363h-.033c-10.267 0-18.564 7.38-20.642 18.348-2.8 14.6 5.652 33.8 30.847 43.8.109.043.219.083.331.12a7.777 7.777 0 0 0 5.183 0c.125-.041.248-.086.37-.136 25.17-10.2 33.6-29.347 30.789-43.844-2.225-11.025-10.352-18.151-20.674-18.151zm35.074 20.616c1.817 9.361-4.326 22.035-22 29.75-17.65-7.559-23.785-20.281-21.965-29.771 1.019-5.374 4.323-8.586 8.84-8.595l26.187.14c4.526-.003 7.869 3.185 8.938 8.476z"/><path d="m340.753 137.629a7.777 7.777 0 0 0 5.183 0c.125-.041.249-.086.37-.136 25.17-10.2 33.6-29.347 30.789-43.843-2.225-11.024-10.352-18.15-20.674-18.15l-26.171-.14c-10.309-.025-18.594 7.368-20.675 18.348-2.8 14.6 5.652 33.8 30.847 43.8.109.044.219.084.331.121zm-19.391-41.671c1.019-5.374 4.323-8.586 8.84-8.595l26.187.14c4.523 0 7.866 3.185 8.934 8.476 1.818 9.361-4.325 22.035-22 29.75-17.646-7.559-23.781-20.281-21.961-29.771z"/><path d="m446.435 241.987-3.211 2.259c-12.289-12.259-31.926-15.35-45.466-6.339-.042.028-.084.056-.125.085l-6.586 4.627a48.4 48.4 0 0 0 -56.182 1.2l-32.729 23.181-46.5 5.523a68.223 68.223 0 0 1 -30.139-3.24c-37.142-12.82-74.367-10.716-99.576 5.628-10.148 6.578-16.436 15.442-22.517 24.014-1.932 2.723-3.929 5.538-6.021 8.234-6.98 9-14.684 17.363-24.1 27.153q-11.745 12.206-24.84 24.857a6 6 0 0 0 -1.351 1.306c-12.298 11.831-25.573 24.065-40.072 36.917a6 6 0 0 0 7.96 8.98c11.644-10.322 22.506-20.251 32.717-29.9a114.329 114.329 0 0 0 12.185 32.4 19.988 19.988 0 0 0 16.33 31.461 20.229 20.229 0 0 0 2.4-.143 19.986 19.986 0 0 0 6.945-2.164 92.786 92.786 0 0 0 26.343 13.331l-31.8 34.51a6 6 0 1 0 8.832 8.133l38.519-41.805.017-.019 41.88-45.452a28.61 28.61 0 0 1 20.081-4.918c.128.016.255.028.383.036l94.778 6.066a119.954 119.954 0 0 0 72.339-19.124 6.061 6.061 0 0 0 .678-.513l147.349-129.2a6 6 0 0 0 .783-8.191 43.377 43.377 0 0 0 -59.304-8.893zm-41.97 5.871c8.194-5.405 20.405-3.628 28.723 3.446l-58.062 40.834-4.281 2.95a52.164 52.164 0 0 0 -11.245-15.716zm-62.6 5.7q.067-.047.132-.1a36.393 36.393 0 0 1 38.305-3.3l-30.793 21.642a51.959 51.959 0 0 0 -23.635-6.912zm-259.32 171.718a7.977 7.977 0 0 1 -.907.964c-.054.051-.109.1-.162.153a8.009 8.009 0 1 1 -6.167-14.026 8.009 8.009 0 0 1 7.236 12.909zm267.476-46.316a107.833 107.833 0 0 1 -64.682 16.97l-94.577-6.053a40.565 40.565 0 0 0 -28.929 7.465 5.932 5.932 0 0 0 -.887.789l-39.966 43.375a83.14 83.14 0 0 1 -26.88-12.127 19.868 19.868 0 0 0 2.021-11.417 19.949 19.949 0 0 0 -26.608-16.462 103.917 103.917 0 0 1 -11.351-35.045q12.518-12.139 23.761-23.825c9.685-10.066 17.633-18.7 24.938-28.117 2.249-2.9 4.322-5.822 6.327-8.647 5.676-8 11.038-15.56 19.256-20.888 22.134-14.348 55.455-15.977 89.134-4.353a80.339 80.339 0 0 0 35.469 3.812l61.7-7.328a40.151 40.151 0 0 1 34.288 12.691c-8.382-2.41-18.767-2.779-30.887-.988a25.4 25.4 0 0 0 -21.648 22.25c-6.386.843-12.746 1.906-19.023 3.2a6 6 0 0 0 2.421 11.754 256.628 256.628 0 0 1 32.992-4.586l52.914-3.868a6 6 0 0 0 5.52-6.693c-.155-1.308-.374-2.593-.622-3.866l7.279-5.017 71.358-50.186a31.394 31.394 0 0 1 39.079 2.3zm9.02-72.644-43.026 3.145c-.986.072-1.973.158-2.96.241a13.47 13.47 0 0 1 10.849-9.019c12.257-1.813 27.074-1.918 35.137 5.633z"/></svg>