<svg height="512" viewBox="0 0 60 60" width="512" xmlns="http://www.w3.org/2000/svg"><g id="011---Rescue-Dog" fill="none"><g id="Layer_4" transform="translate(1)"><path id="Shape" d="m58 16.62c-.5128623 2.9663668-2.9954732 5.1924412-6 5.38h-5.8c.5454427 2.2929796.8140257 4.6430811.8 7 0 6.1-1.67 11.29-4 13.21v12.79c3 0 3.92 4 2 4h-9.51c-.4890037.0079763-.9120327-.3389075-1-.82l-2.43-13.36c-2.3369957.3267927-4.7154429.1908814-7-.4-.2600328-.0628555-.5344087-.0188999-.761793.1220407-.2273842.1409406-.3888155.3671135-.448207.6279593-1.18 5.29-5.33 5.87-7 5.87-.4520723.0094171-.8415772.321021-.95.76l-.64 2.2c-.1215911.4993549.1551357 1.0095701.64 1.18 2.28.7 2.79 3.86 1.1 3.86h-5c-.5522847 0-1-.4477153-1-1v-8.53c-1.6703536.7910512-3.46213922 1.2947797-5.3 1.49-.4227824.0378922-.77557539.338568-.88.75l-.56 2.25c-.12159113.4993549.15513574 1.0095701.64 1.18 2.28.66 2.79 3.82 1.1 3.82h-5c-.55228475 0-1-.4477153-1-1v-10.17c-.00042238-.5330446.2119606-1.0442036.59-1.42l3-3c.27195296-.2859602.3502995-.7051141.2-1.07-1.27487658-3.268112-1.02555829-6.9345576.68-10 .19697416-.3042342.19697416-.6957658 0-1-1.69241082-2.4450996-2.55795404-5.3676221-2.47-8.34 0-2.84.46-6.36 2-8.77.11430611-.1714528.32208937-.2552204.5233489-.2109875.20125954.0442329.35477018.2074057.3866511.4109875.51660742 3.1235954 1.38201974 6.179373 2.58 9.11.62263075 1.4925715 2.08277167 2.4633679 3.7 2.46h17.27c3.3525467.0208233 6.3624599-2.050987 7.54-5.19l3.71-9c.45-1.09.48-1.2 1.34-10.36.0172243-.16335859.1120777-.30842069.2548208-.38970493s.3158994-.08883879.4651792-.02029507c3.13 1.6 4.23 7.96 4.23 7.96 2.6339169-.00609621 4.8209002 2.0321722 5 4.66l6.33 1.85c.4654305.1554925.7492657.6257269.67 1.11z" fill="#e8edfc"/><path id="Shape" d="m45 59h-3c1.91 0 1-4-2-4v-12.79c2.33-1.92 4-7.11 4-13.21.0140257-2.3569189-.2545573-4.7070204-.8-7h3c.5454427 2.2929796.8140257 4.6430811.8 7 0 6.1-1.67 11.29-4 13.21v12.79c3 0 3.92 4 2 4z" fill="#cad9fc"/><path id="Shape" d="m58 16.62c-.5128623 2.9663668-2.9954732 5.1924412-6 5.38h-3c3.0045268-.1875588 5.4871377-2.4136332 6-5.38.078145-.4870766-.210576-.9583711-.68-1.11l-6.32-1.85c-.1790998-2.6278278-2.3660831-4.66609621-5-4.66-.3827326-2.07255649-1.1166159-4.06452565-2.17-5.89l.17-1.65c.0172243-.16335859.1120777-.30842069.2548208-.38970493s.3158994-.08883879.4651792-.02029507c3.18 1.59 4.28 7.95 4.28 7.95 2.6339169-.00609621 4.8209002 2.0321722 5 4.66l6.33 1.85c.4654305.1554925.7492657.6257269.67 1.11z" fill="#cad9fc"/><path id="Shape" d="m39.84 59.0001348-4.35-.0001348c-.4890037.0079763-.9120327-.3389075-1-.82l-2.43-13.36c1.0214932-.139436 2.0264897-.3806352 3-.72.2733939-.0952685.5746585-.0673734.8259119.076474.2512533.1438473.4278322.3895267.4840881.673526.3 1.6-.14-.76 2.5 13.33.0859487.4699465.4923033.8134627.97.8201348z" fill="#e8edfc"/><path id="Shape" d="m33 24.59v13.41c0 1.1045695-.8954305 2-2 2h-16c-1.1045695 0-2-.8954305-2-2v-12h15.46c1.620203-.0059482 3.2014865-.4970516 4.54-1.41z" fill="#a4c2f7"/><path id="Shape" d="m30 25.84v12.16c0 1.1045695-.8954305 2-2 2h-13c-1.1045695 0-2-.8954305-2-2v-12c17 0 16 .06 17-.16z" fill="#cad9fc"/></g><g id="white" fill="#fff" transform="translate(1)"><path id="Shape" d="m27 44.81c1.3249535.1869808 2.6667728.2238808 4 .11-1.0131732-.0746822-2.0173717-.2420486-3-.5-.3807713-.075064-.7705876.0769643-1 .39z"/><path id="Shape" d="m36 20.81c-.6279587 1.6642378-1.7926567 3.0717279-3.31 4-1.69.97-2.32 1.19-7.23 1.19 7.72 0 8.27-.07 10.18-1.23 1.5173433-.9282721 2.6820413-2.3357622 3.31-4l3.71-9c.42-1 .47-1.19 1.18-8.68-.5101891-.87127824-1.2415395-1.59227933-2.12-2.09-.1492798-.06854372-.3224361-.06098917-.4651792.02029507s-.2375965.22634634-.2548208.38970493l-.17 1.65c-.71 7.5-.75 7.67-1.18 8.69z"/><path id="Shape" d="m35.06 44.82c-.9937943.1368377-1.9972886.1903574-3 .16l2.41 13.2c.0879673.4810925.5109963.8279763 1 .82l3 .0001348c-.4890037.0078415-.9120327-.3390423-1-.8201348z"/><path id="Shape" d="m.59 46.41c-.3780394.3757964-.59042238.8869554-.59 1.42v10.17c0 .5522847.44771525 1 1 1h3c-.55228475 0-1-.4477153-1-1v-10.17c-.00042238-.5330446.2119606-1.0442036.59-1.42l3-3c.27195296-.2859602.3502995-.7051141.2-1.07-1.27487658-3.268112-1.02555829-6.9345576.68-10 .19697416-.3042342.19697416-.6957658 0-1-1.69241082-2.4450996-2.55795404-5.3676221-2.47-8.34-.01091613-1.7737379.18711463-3.542589.59-5.27-.32-1.3-.56-2.47-.68-3.3-.03188092-.2035818-.18539156-.3667546-.3866511-.4109875-.20125953-.0442329-.40904279.0395347-.5233489.2109875-1.54 2.41-2 5.93-2 8.77-.08390284 2.948734.77046428 5.8479798 2.44 8.28.19697416.3042342.19697416.6957658 0 1-1.70555829 3.0654424-1.95487658 6.731888-.68 10 .1502995.3648859.07195296.7840398-.2 1.07z"/><path id="Shape" d="m12 59h3c-.5522847 0-1-.4477153-1-1v-8.49c-.9662696.4270835-1.9707342.761905-3 1v7.49c0 .5522847.4477153 1 1 1z"/></g><g id="Layer_2" fill="#428dff" transform="translate(0 -1)"><path id="Shape" d="m3.7 29.72c-.55228475 0-1-.4477153-1-1s.44771525-1 1-1 1 .4477153 1 1-.44771525 1-1 1z"/><path id="Shape" d="m2 61h5c.52957685-.0022328 1.03664971-.2144122 1.41-.59.37558779-.3733503.58776721-.8804232.59-1.41-.00268346-1.7329729-1.12099031-3.2671123-2.77-3.8l.56-2.2c1.43914126-.1587953 2.85317116-.4946694 4.21-1v7c0 1.1045695.8954305 2 2 2h5c.5295768-.0022328 1.0366497-.2144122 1.41-.59.3755878-.3733503.5877672-.8804232.59-1.41-.0156034-1.7218977-1.1314414-3.2405654-2.77-3.77l.52-2.23c3.9575082.0946023 7.3755555-2.7509221 8-6.66 2.1158293.5540405 4.3123139.7334145 6.49.53l2.28 12.45c.1759347.9621851 1.0219925 1.6559525 2 1.64h9.48c1.1045695 0 2-.8954305 2-2 .0032034-1.8266049-1.2313939-3.4233509-3-3.88v-11.43c2.44-2.38 4-7.65 4-13.65.0069915-2.0133672-.1805463-4.022701-.56-6h4.56c1.9029906-.0759881 3.6994019-.8987445 5-2.29 1.0764682-1.0656041 1.7782516-2.4516264 2-3.95.1476875-.9791983-.4434356-1.9190415-1.39-2.21l-5.7-1.67c-.4804319-2.5244767-2.5151737-4.46270905-5.06-4.82-.42-1.89-1.72-6.43-4.66-7.9-.4349493-.22935812-.9550507-.22935812-1.39 0-.4565052.22937523-.7599063.68068429-.8 1.19l-.91 8.65c-.0453628.4848813-.1633474.9601906-.35 1.41l-3.73 9c-1.0082378 2.7495031-3.6214806 4.5807679-6.55 4.59h-17.27c-1.2159545.0037143-2.31388761-.7269246-2.78-1.85-1.16026597-2.8519318-2.00203455-5.8232743-2.51-8.86-.08084597-.6236781-.54457244-1.1294421-1.15891191-1.263969-.61433947-.1345268-1.24699531.1311534-1.58108809.663969-.92153116 1.5327623-1.53310186 3.2315698-1.8 5-.29919101 1.6926903-.41985231 3.4121137-.36 5.13.01278415.269022.13354258.5215142.33494285.7003275.20140027.1788134.46641369.2688289.73505715.2496725.52477544-.036823.93129033-.4739358.93-1-.14910076-2.6070169.24945463-5.2163625 1.17-7.66.54426713 2.6890464 1.34113448 5.3207175 2.38 7.86.79429895 1.853134 2.6238908 3.047889 4.64 3.03h.81v11c0 1.6568542 1.3431458 3 3 3h16c1.6568542 0 3-1.3431458 3-3v-12.94c1.2950342-1.0008578 2.2882631-2.3401595 2.87-3.87l3.72-9c.2630288-.6382163.4282227-1.3124771.49-2l.83-7.86c1.83 1.55 2.85 5.33 3.1 6.8.0651889.4972021.4885432.8692407.99.87 2.1078538-.0048071 3.857725 1.6269478 4 3.73.0296581.4182833.3171351.7736368.72.89l6.28 1.86c-.1563295 1.0686975-.6545105 2.0580427-1.42 2.82-.9254081 1.012615-2.2103977 1.6228056-3.58 1.7h-8c-.5522847 0-1 .4477153-1 1s.4477153 1 1 1h1.39c.4085417 1.973791.612951 3.9843739.61 6 .0864351 3.5052762-.5962399 6.9869189-2 10.2v-.2c0-.5522847-.4477153-1-1-1s-1 .4477153-1 1v16c0 .5522847.4477153 1 1 1 1.1045695 0 2 .8954305 2 2h-5.17l-2.28-12.18-.22-1.15c-.1135981-.5823993-.4799402-1.084288-1-1.37-.5078248-.2921942-1.1182337-.3470214-1.67-.15-3.0446041 1.0084594-6.3156809 1.1161063-9.42.31-.5201672-.1476761-1.0783647-.0715582-1.54.21-.4650451.3021506-.7837523.783833-.88 1.33-1 4.42-4.22 5.09-6.07 5.09-.9087342.0086648-1.6973913.6289107-1.92 1.51l-.54 2.16c-.2518046 1.0136947.3188483 2.0504535 1.31 2.38.816604.2565385 1.3794315 1.004295 1.4 1.86h-5v-14c0-.5522847-.4477153-1-1-1s-1 .4477153-1 1v4.86c-1.39823025.5969869-2.87796868.981247-4.39 1.14-.84838144.0771395-1.55478887.683205-1.76 1.51l-.56 2.24c-.22841373 1.0005827.33761607 2.0116588 1.31 2.34.83395164.2622651 1.40092722 1.0357818 1.4 1.91h-5v-10.17c-.00153676-.265803.10281349-.5212812.29-.71l3-3c.54609769-.5614988.71416289-1.3900993.43-2.12-.49479048-1.2746836-.73924949-2.6327892-.72-4-.03565928-1.7983325.42077995-3.5722213 1.32-5.13.4272427-.6670984.40345199-1.5275291-.06-2.17-.14830282-.2203997-.37820673-.3727332-.63898229-.4233875-.26077557-.0506542-.53098947.0045341-.75101771.1533875-.43044206.3164429-.53612954.9153386-.24 1.36-1.87908442 3.3360091-2.14745682 7.3432134-.73 10.9l-3 3c-.57503437.5636459-.89934792 1.3347914-.9 2.14v10.17c0 1.1045695.8954305 2 2 2zm31-22c0 .5522847-.4477153 1-1 1h-16c-.5522847 0-1-.4477153-1-1v-11h14.46c1.2197345-.006957 2.4248946-.2656919 3.54-.76zm3.37 7 .21 1.15 2.22 11.85h-2.32l-2.26-12.38c.7304595-.1554323 1.4489389-.3626217 2.15-.62z"/><path id="Shape" d="m27 33h-2v-2c0-.5522847-.4477153-1-1-1s-1 .4477153-1 1v2h-2c-.5522847 0-1 .4477153-1 1s.4477153 1 1 1h2v2c0 .5522847.4477153 1 1 1s1-.4477153 1-1v-2h2c.5522847 0 1-.4477153 1-1s-.4477153-1-1-1z"/></g></g></svg>