<svg id="Capa_1" enable-background="new 0 0 512 512" height="512" viewBox="0 0 512 512" width="512" xmlns="http://www.w3.org/2000/svg"><g><g><circle cx="256" cy="245" fill="#d7dbe2" r="245"/></g><g><circle cx="256" cy="200" fill="#e6ebf4" r="180"/></g><g><g><circle cx="185.229" cy="156.944" fill="#9e2b1b" r="23.408"/></g><g><circle cx="319.873" cy="166.76" fill="#9e2b1b" r="29.936"/></g><g><path d="m424.753 206.685c-1.527 0-3.015.157-4.461.436-6.312-28.45-31.676-49.731-62.026-49.731-35.098 0-63.551 28.453-63.551 63.551s28.453 63.551 63.551 63.551c24.224 0 45.277-13.556 56-33.493 3.158 1.587 6.711 2.502 10.486 2.502 12.928 0 23.408-10.48 23.408-23.408s-10.479-23.408-23.407-23.408z" fill="#b53921"/></g><g><path d="m160.131 151.576c-20.226 0-36.623 16.397-36.623 36.623 0 1.701.126 3.372.35 5.012-3.798-.963-7.775-1.479-11.873-1.479-26.59 0-48.146 21.556-48.146 48.146s21.556 48.146 48.146 48.146 48.146-21.556 48.146-48.146c0-5.293-.867-10.382-2.445-15.146.809.053 1.622.09 2.445.09 20.227 0 36.623-16.397 36.623-36.623s-16.396-36.623-36.623-36.623z" fill="#c64928"/></g><g><circle cx="329.765" cy="236.346" fill="#c64928" r="48.146"/></g><g><path d="m254.104 119.102c-38.161 0-69.097 30.936-69.097 69.097 0 .154.011.305.012.459-2.151-.294-4.344-.459-6.575-.459-26.59 0-48.146 21.556-48.146 48.146s21.556 48.146 48.146 48.146c21.622 0 39.915-14.254 45.995-33.878 8.989 4.28 19.046 6.682 29.665 6.682 38.161 0 69.097-30.936 69.097-69.097s-30.936-69.096-69.097-69.096z" fill="#d85f35"/></g></g><g><path d="m451 275 46 207-241 15-241-15 46-207 195-15z" fill="#1bafea"/></g><g><path d="m117.841 482 46-207 1.378-8.017-104.219 8.017-46 207 241 15 51.42-3.2z" fill="#0596d6"/></g><g><path d="m497 512h-482c-8.284 0-15-6.716-15-15 0-8.284 6.716-15 15-15h482c8.284 0 15 6.716 15 15 0 8.284-6.716 15-15 15z" fill="#64d2ff"/></g><g><path d="m451 275h-390c-8.284 0-15-6.716-15-15 0-8.284 6.716-15 15-15h390c8.284 0 15 6.716 15 15 0 8.284-6.716 15-15 15z" fill="#64d2ff"/></g><g><path d="m102.841 497c0-8.284 6.716-15 15-15h-102.841c-8.284 0-15 6.716-15 15s6.716 15 15 15h102.841c-8.285 0-15-6.716-15-15z" fill="#1bafea"/></g><g><path d="m148.841 260c0-8.284 6.716-15 15-15h-102.841c-8.284 0-15 6.716-15 15s6.716 15 15 15h102.841c-8.285 0-15-6.716-15-15z" fill="#1bafea"/></g><g><g><path d="m130.75 394.218c-1.765 4.296-2.691 9.026-2.573 13.986.422 17.791 14.653 32.624 32.415 33.727 18.334 1.139 33.835-11.994 36.457-29.351.552-3.655 2.101-7.087 4.595-9.816 3.516-3.846 8.487-6.036 13.698-6.036h81.13c5.211 0 10.181 2.19 13.698 6.036 2.495 2.728 4.043 6.16 4.595 9.816 2.622 17.356 18.124 30.489 36.457 29.351 17.762-1.103 31.993-15.936 32.415-33.727.118-4.962-.809-9.694-2.576-13.992-4.191-10.196-3.879-21.603.174-31.855 3.51-8.878 3.454-19.554-1.932-30.269-2.715-5.4-7.073-9.845-12.454-12.598-24.472-12.521-48.852 2.851-52.107 25.085-.527 3.603-2.111 6.969-4.568 9.656l-.004.004c-3.516 3.846-8.487 6.036-13.698 6.036h-81.13c-5.211 0-10.181-2.19-13.698-6.036-2.495-2.728-4.043-6.16-4.595-9.816-2.622-17.356-18.123-30.489-36.457-29.35-17.762 1.103-31.994 15.935-32.416 33.726-.118 4.96.808 9.69 2.574 13.987 4.13 10.052 4.13 21.384 0 31.436z" fill="#f9f0e1"/></g><g><path d="m128.177 348.797c-.117 4.959.809 9.689 2.574 13.985 4.13 10.052 4.129 21.384 0 31.436-1.765 4.296-2.691 9.025-2.573 13.984.002-16.887 24.797-13.172 24.797-29.703-.001-16.529-24.796-12.814-24.798-29.702z" fill="#f0e2c5"/></g><g><path d="m383.638 408.203c.117-4.959-.809-9.689-2.574-13.985-4.13-10.052-4.129-21.384 0-31.436 1.765-4.296 2.691-9.025 2.573-13.984-.002 16.887-24.797 13.172-24.797 29.703.001 16.529 24.796 12.814 24.798 29.702z" fill="#f0e2c5"/></g><g><path d="m160.592 441.931c18.351 1.14 33.865-12.019 36.465-29.4.19-1.272.423-2.545.883-3.746 2.876-7.503 9.889-12.056 17.402-12.056h81.13c7.514 0 14.529 4.555 17.403 12.06.46 1.201.692 2.473.883 3.746 2.602 17.379 18.114 30.536 36.464 29.396-17.994-.452-18.012-17.088-16.417-33.366 1.577-16.096-11.003-30.065-27.176-30.065h-51.722-52.063c-15.889 0-28.438 13.509-27.238 29.352 1.26 16.623 1.232 33.826-16.014 34.079z" fill="#f0e2c5"/></g></g></g></svg>